<?xml version="1.0" encoding="UTF-8" standalone="no"?>
<!DOCTYPE svg PUBLIC "-//W3C//DTD SVG 1.1//EN"
 "http://www.w3.org/Graphics/SVG/1.1/DTD/svg11.dtd">
<!-- Generated by graphviz version 8.0.4 (0)
 -->
<!-- Pages: 1 -->
<svg width="301pt" height="548pt"
 viewBox="0.00 0.00 300.53 548.00" xmlns="http://www.w3.org/2000/svg" xmlns:xlink="http://www.w3.org/1999/xlink">
<g id="graph0" class="graph" transform="scale(1 1) rotate(0) translate(4 544)">
<polygon fill="white" stroke="none" points="-4,4 -4,-544 296.53,-544 296.53,4 -4,4"/>
<!-- nf308d9d0 -->
<g id="node1" class="node">
<title>nf308d9d0</title>
<polygon fill="none" stroke="black" points="267.77,-540 142.27,-540 142.27,-504 267.77,-504 267.77,-540"/>
<text text-anchor="middle" x="205.02" y="-517.33" font-family="Times,serif" font-size="14.00">call fn (r 1, v 1)</text>
</g>
<!-- nf308da40 -->
<g id="node2" class="node">
<title>nf308da40</title>
<ellipse fill="none" stroke="black" cx="205.02" cy="-450" rx="63.83" ry="18"/>
<text text-anchor="middle" x="205.02" y="-445.32" font-family="Times,serif" font-size="14.00">5 (r 2, v 1)</text>
</g>
<!-- nf308d9d0&#45;&gt;nf308da40 -->
<!-- nf308da90 -->
<g id="node3" class="node">
<title>nf308da90</title>
<polygon fill="none" stroke="black" points="252.02,-396 158.02,-396 158.02,-360 252.02,-360 252.02,-396"/>
<text text-anchor="middle" x="205.02" y="-373.32" font-family="Times,serif" font-size="14.00">^ (r 4, v 3)</text>
</g>
<!-- nf308da40&#45;&gt;nf308da90 -->
<!-- nf308da90&#45;&gt;nf308d9d0 -->
<g id="edge2" class="edge">
<title>nf308da90&#45;&gt;nf308d9d0</title>
<path fill="none" stroke="black" d="M157.67,-391.14C133.57,-400.67 106.92,-416.39 95.09,-441.38 83.09,-466.73 105.77,-485.89 133.58,-499.16"/>
<polygon fill="black" stroke="black" points="132.03,-502.74 142.59,-503.6 134.87,-496.34 132.03,-502.74"/>
<text text-anchor="middle" x="87.51" y="-445.32" font-family="Times,serif" font-size="14.00">left</text>
</g>
<!-- nf308da90&#45;&gt;nf308da40 -->
<g id="edge1" class="edge">
<title>nf308da90&#45;&gt;nf308da40</title>
<path fill="none" stroke="black" d="M205.02,-396.17C205.02,-403.62 205.02,-412.42 205.02,-420.74"/>
<polygon fill="black" stroke="black" points="201.52,-420.59 205.02,-430.59 208.52,-420.59 201.52,-420.59"/>
<text text-anchor="middle" x="193.39" y="-409.32" font-family="Times,serif" font-size="14.00">right</text>
</g>
<!-- nf308d980 -->
<g id="node4" class="node">
<title>nf308d980</title>
<ellipse fill="none" stroke="black" cx="205.02" cy="-306" rx="87.51" ry="18"/>
<text text-anchor="middle" x="205.02" y="-301.32" font-family="Times,serif" font-size="14.00">lvalue (r 2, v 0)</text>
</g>
<!-- nf308da90&#45;&gt;nf308d980 -->
<!-- nf308d980&#45;&gt;nf308da90 -->
<g id="edge3" class="edge">
<title>nf308d980&#45;&gt;nf308da90</title>
<path fill="none" stroke="black" d="M249.89,-321.75C272.99,-333.02 276.82,-344.28 261.35,-355.55"/>
<polygon fill="black" stroke="black" points="259.96,-352.91 253.21,-361.08 263.58,-358.9 259.96,-352.91"/>
</g>
<!-- nf308dba0 -->
<g id="node5" class="node">
<title>nf308dba0</title>
<ellipse fill="none" stroke="black" cx="205.02" cy="-234" rx="63.83" ry="18"/>
<text text-anchor="middle" x="205.02" y="-229.32" font-family="Times,serif" font-size="14.00">3 (r 2, v 1)</text>
</g>
<!-- nf308d980&#45;&gt;nf308dba0 -->
<!-- nf308dbf0 -->
<g id="node6" class="node">
<title>nf308dbf0</title>
<polygon fill="none" stroke="black" points="252.39,-180 157.64,-180 157.64,-144 252.39,-144 252.39,-180"/>
<text text-anchor="middle" x="205.02" y="-157.32" font-family="Times,serif" font-size="14.00">&amp; (r 2, v 1)</text>
</g>
<!-- nf308dba0&#45;&gt;nf308dbf0 -->
<!-- nf308dbf0&#45;&gt;nf308da90 -->
<g id="edge5" class="edge">
<title>nf308dbf0&#45;&gt;nf308da90</title>
<path fill="none" stroke="black" d="M157.3,-179.05C143.06,-185.97 128.38,-195.18 117.51,-207 99.82,-226.24 100.17,-235.73 95.09,-261.38 88.61,-294.1 94.93,-308.44 117.51,-333 126.09,-342.33 137.05,-350.04 148.29,-356.27"/>
<polygon fill="black" stroke="black" points="146.26,-359.68 156.75,-361.17 149.48,-353.46 146.26,-359.68"/>
<text text-anchor="middle" x="87.51" y="-265.32" font-family="Times,serif" font-size="14.00">left</text>
</g>
<!-- nf308dbf0&#45;&gt;nf308dba0 -->
<g id="edge4" class="edge">
<title>nf308dbf0&#45;&gt;nf308dba0</title>
<path fill="none" stroke="black" d="M205.02,-180.17C205.02,-187.62 205.02,-196.42 205.02,-204.74"/>
<polygon fill="black" stroke="black" points="201.52,-204.59 205.02,-214.59 208.52,-204.59 201.52,-204.59"/>
<text text-anchor="middle" x="193.39" y="-193.32" font-family="Times,serif" font-size="14.00">right</text>
</g>
<!-- nf308dc40 -->
<g id="node7" class="node">
<title>nf308dc40</title>
<polygon fill="none" stroke="black" points="248.27,-108 161.77,-108 161.77,-72 248.27,-72 248.27,-108"/>
<text text-anchor="middle" x="205.02" y="-85.33" font-family="Times,serif" font-size="14.00">&#45; (r 2, v 1)</text>
</g>
<!-- nf308dbf0&#45;&gt;nf308dc40 -->
<!-- nf308dc40&#45;&gt;nf308da90 -->
<g id="edge7" class="edge">
<title>nf308dc40&#45;&gt;nf308da90</title>
<path fill="none" stroke="black" d="M161.5,-101.08C136.86,-109.92 108.39,-125.14 95.09,-150.38 89.2,-161.57 68.22,-263.26 117.51,-333 125.21,-343.9 136.36,-352.34 148.14,-358.8"/>
<polygon fill="black" stroke="black" points="146.15,-362.22 156.66,-363.57 149.29,-355.96 146.15,-362.22"/>
<text text-anchor="middle" x="87.51" y="-154.32" font-family="Times,serif" font-size="14.00">left</text>
</g>
<!-- nf308dc40&#45;&gt;nf308dbf0 -->
<g id="edge6" class="edge">
<title>nf308dc40&#45;&gt;nf308dbf0</title>
<path fill="none" stroke="black" d="M205.02,-108.17C205.02,-115.62 205.02,-124.42 205.02,-132.74"/>
<polygon fill="black" stroke="black" points="201.52,-132.59 205.02,-142.59 208.52,-132.59 201.52,-132.59"/>
<text text-anchor="middle" x="193.39" y="-121.33" font-family="Times,serif" font-size="14.00">right</text>
</g>
<!-- nf308db10 -->
<g id="node8" class="node">
<title>nf308db10</title>
<polygon fill="none" stroke="black" points="268.89,-36 141.14,-36 141.14,0 268.89,0 268.89,-36"/>
<text text-anchor="middle" x="205.02" y="-13.32" font-family="Times,serif" font-size="14.00">return (r 2, v 0)</text>
</g>
<!-- nf308dc40&#45;&gt;nf308db10 -->
<!-- nf308db10&#45;&gt;nf308d980 -->
<g id="edge9" class="edge">
<title>nf308db10&#45;&gt;nf308d980</title>
<path fill="none" stroke="black" stroke-dasharray="1,5" d="M144.5,-36.4C129.17,-44.5 115.16,-55.95 108.51,-72 100.86,-90.48 100.86,-233.52 108.51,-252 114.87,-267.35 127.96,-278.49 142.5,-286.52"/>
<polygon fill="black" stroke="black" points="140.7,-290.03 151.21,-291.36 143.82,-283.77 140.7,-290.03"/>
</g>
<!-- nf308db10&#45;&gt;nf308dc40 -->
<g id="edge8" class="edge">
<title>nf308db10&#45;&gt;nf308dc40</title>
<path fill="none" stroke="black" d="M241.32,-36.28C253.35,-45.46 256.03,-54.64 249.36,-63.82"/>
<polygon fill="black" stroke="black" points="247.21,-61.01 242.56,-70.53 252.13,-65.99 247.21,-61.01"/>
</g>
</g>
</svg>
